<svg width="837" height="77" viewBox="0 0 837 77" fill="none" xmlns="http://www.w3.org/2000/svg">
<path d="M12.8027 24.209C12.623 24.179 12.4883 24.2539 12.3984 24.4336C12.3086 24.5833 12.2487 24.8379 12.2188 25.1973C12.1888 25.5267 12.1589 25.7214 12.1289 25.7812C12.0391 26.2305 12.0091 26.8145 12.0391 27.5332C12.069 28.222 12.069 28.7311 12.0391 29.0605C11.9792 30.6478 11.9941 32.849 12.084 35.6641C12.1738 38.4792 12.2188 40.3958 12.2188 41.4141C12.2487 42.3424 12.1589 45.1576 11.9492 49.8594C11.8294 51.8359 11.8893 54.082 12.1289 56.5977C12.3984 58.4245 11.8444 59.7422 10.4668 60.5508C9.95768 60.8503 9.6582 61 9.56836 61C8.90951 60.9102 7.74154 60.9102 6.06445 61C4.38737 61.0599 3.2194 60.9701 2.56055 60.7305C1.7819 60.5508 1.24284 60.3112 0.943359 60.0117C0.673828 59.7122 0.479167 59.1882 0.359375 58.4395C0.299479 57.8405 0.269531 56.418 0.269531 54.1719C0.209635 50.2487 0.179688 41.5488 0.179688 28.0723V5.79102C0.179688 4.44336 0.404297 3.52995 0.853516 3.05078C1.30273 2.54167 2.15625 2.25716 3.41406 2.19727H9.38867C10.7962 2.19727 11.8594 2.78125 12.5781 3.94922C13.6562 5.41667 15.2585 7.61784 17.3848 10.5527C19.541 13.4577 21.1432 15.6439 22.1914 17.1113C23.6289 19.1178 25.7402 22.1426 28.5254 26.1855C31.3105 30.2285 33.4219 33.2533 34.8594 35.2598C35.099 35.5592 35.8926 36.5026 37.2402 38.0898C37.5697 38.4193 37.8242 38.6289 38.0039 38.7188C38.2135 38.8086 38.3483 38.7786 38.4082 38.6289C38.4681 38.4792 38.498 38.3594 38.498 38.2695C38.528 38.1797 38.543 38.0299 38.543 37.8203C38.6029 37.4909 38.6029 36.6523 38.543 35.3047C38.4831 33.9271 38.4531 33.0736 38.4531 32.7441C38.2734 27.623 38.2734 23.5202 38.4531 20.4355C38.6328 16.8717 38.5729 12.0501 38.2734 5.9707C38.2734 5.07227 38.6029 4.09896 39.2617 3.05078C39.651 2.36198 40.235 2.01758 41.0137 2.01758C42.1816 2.01758 43.2448 2.0026 44.2031 1.97266C45.1615 1.94271 45.7754 1.92773 46.0449 1.92773C46.3145 1.92773 46.599 1.95768 46.8984 2.01758C47.2279 2.04753 47.6921 2.16732 48.291 2.37695C49.3392 2.73633 49.9531 3.38021 50.1328 4.30859C50.4323 5.95573 50.5521 7.00391 50.4922 7.45312C50.2227 9.78906 50.1628 12.7389 50.3125 16.3027C50.4023 18.1595 50.4023 20.8249 50.3125 24.2988C50.2526 27.7728 50.2526 30.3783 50.3125 32.1152C50.4323 32.1452 50.4622 34.2116 50.4023 38.3145C50.3424 42.4173 50.3125 44.4837 50.3125 44.5137C50.3125 51.4616 50.3424 55.9089 50.4023 57.8555C50.4023 58.5742 50.1478 59.2181 49.6387 59.7871C49.1296 60.3561 48.5306 60.6706 47.8418 60.7305C46.9134 60.7904 44.8021 60.8203 41.5078 60.8203C39.8607 60.8203 38.513 60.1165 37.4648 58.709C36.4167 57.0618 35.2936 55.3848 34.0957 53.6777C32.8978 51.9707 31.4902 50.0391 29.873 47.8828C28.2858 45.6966 27.1328 44.0944 26.4141 43.0762C25.1263 41.1895 21.0983 35.5143 14.3301 26.0508C13.6413 24.8229 13.1322 24.209 12.8027 24.209Z" fill="#E8E8E8"/>
<path d="M83.4127 18.7734C82.7239 19.4622 82.1699 20.2409 81.7506 21.1094C81.3314 21.9779 80.942 22.9811 80.5827 24.1191C80.2532 25.2572 79.9687 26.0807 79.7291 26.5898C78.3216 29.5247 77.4381 31.8906 77.0788 33.6875C77.4381 34.0469 78.0521 34.2266 78.9205 34.2266C79.9088 34.1667 82.11 34.1367 85.5241 34.1367C86.0631 34.1367 86.9017 34.0469 88.0397 33.8672C89.0579 33.7474 89.3873 33.1934 89.028 32.2051C86.8717 26.9043 85 22.4271 83.4127 18.7734ZM106.053 60.8203V60.9102H103.583C102.025 61.1198 100.857 60.5059 100.079 59.0684C99.6894 58.3496 99.2103 57.3464 98.6413 56.0586C98.1022 54.7409 97.7578 53.9023 97.608 53.543C97.2786 52.7044 96.7695 51.4466 96.0807 49.7695C95.3919 48.0924 94.8828 46.8346 94.5534 45.9961C94.194 44.9479 93.4902 44.4238 92.442 44.4238C91.1842 44.3639 88.3841 44.334 84.0416 44.334C83.4726 44.334 81.9902 44.3639 79.5944 44.4238C77.1985 44.4837 75.7461 44.4837 75.237 44.4238C73.4401 44.304 72.2721 45.0827 71.733 46.7598C69.1276 53.5879 67.75 57.1966 67.6002 57.5859C66.7018 60.0417 64.9798 61.1797 62.4342 61C61.8053 60.9102 60.8769 60.8652 59.6491 60.8652C58.4511 60.8652 57.5976 60.8503 57.0885 60.8203C54.9023 60.5208 54.1686 59.4128 54.8873 57.4961C55.4564 55.7891 56.5944 52.944 58.3014 48.9609L63.5573 36.248C64.0065 35.1999 64.6504 33.6276 65.4889 31.5312C66.3274 29.4349 66.9713 27.8477 67.4205 26.7695C67.6302 26.2305 67.9446 25.4668 68.3639 24.4785C68.8131 23.4603 69.1426 22.6966 69.3522 22.1875C71.0293 17.5755 72.8112 13.3678 74.6979 9.56445C75.0573 8.72591 75.3268 7.84245 75.5065 6.91406C75.5664 6.64453 75.6413 6.375 75.7311 6.10547C75.8509 5.80599 75.9557 5.56641 76.0455 5.38672C76.1354 5.20703 76.2552 4.96745 76.4049 4.66797C76.5846 4.33854 76.7194 4.09896 76.8092 3.94922C77.3183 2.7513 78.2018 2.13737 79.4596 2.10742C81.6458 1.98763 84.0117 1.92773 86.5573 1.92773C87.7552 1.92773 88.6985 2.54167 89.3873 3.76953C89.5071 3.97917 90.0013 5.05729 90.8698 7.00391C94.1341 14.5508 96.6497 20.4056 98.4166 24.5684C101.411 31.3965 103.103 35.2598 103.493 36.1582C104.421 38.1048 105.754 41.1745 107.491 45.3672C109.258 49.5599 110.68 52.7493 111.758 54.9355C112.238 55.8639 112.582 56.8372 112.792 57.8555C113.091 59.6523 112.372 60.6406 110.635 60.8203H106.053Z" fill="#E8E8E8"/>
<path d="M166.286 22.0977V33.418C166.286 35.6042 166.256 37.3561 166.197 38.6738C166.167 39.9616 166.032 41.474 165.792 43.2109C165.553 44.9479 165.193 46.4453 164.714 47.7031C164.265 48.9609 163.621 50.3086 162.783 51.7461C161.944 53.1836 160.896 54.5762 159.638 55.9238C157.272 58.4095 154.517 60.0866 151.372 60.9551C148.258 61.7936 144.604 62.2129 140.411 62.2129C138.944 62.2129 137.102 62.0781 134.886 61.8086C131.891 61.2695 129.301 60.446 127.115 59.3379C124.928 58.2298 123.131 56.9271 121.724 55.4297C120.346 53.9023 119.238 52.0605 118.4 49.9043C117.591 47.7181 117.022 45.4421 116.693 43.0762C116.393 40.7103 116.243 37.9701 116.243 34.8555C116.243 33.8372 116.288 30.6029 116.378 25.1523C116.468 19.7018 116.453 16.4674 116.333 15.4492C116.243 14.3711 116.258 12.7988 116.378 10.7324C116.468 8.66602 116.483 7.10872 116.423 6.06055C116.363 5.52148 116.423 4.9375 116.603 4.30859C116.783 3.17057 117.426 2.60156 118.534 2.60156C118.954 2.60156 119.553 2.60156 120.331 2.60156C121.14 2.57161 121.784 2.55664 122.263 2.55664C122.742 2.55664 123.326 2.57161 124.015 2.60156C124.704 2.63151 125.333 2.69141 125.902 2.78125C127.189 2.96094 127.923 3.57487 128.103 4.62305C128.223 5.01237 128.283 5.80599 128.283 7.00391C128.462 19.612 128.522 28.2819 128.462 33.0137C128.342 35.709 128.402 38.6589 128.642 41.8633C128.822 43.6003 129.271 45.0977 129.99 46.3555C130.708 47.6133 131.637 48.6165 132.775 49.3652C133.943 50.084 135.215 50.6081 136.593 50.9375C137.971 51.2669 139.498 51.4316 141.175 51.4316C143.002 51.4316 144.934 51.1471 146.97 50.5781C149.006 49.9792 150.414 49.1257 151.193 48.0176C152.69 46.1009 153.544 44.0495 153.753 41.8633L154.158 34.4961C154.158 30.0339 154.053 24.763 153.843 18.6836C153.693 16.3776 153.678 13.862 153.798 11.1367C153.948 8.38151 154.023 6.82422 154.023 6.46484C154.023 5.77604 154.053 5.20703 154.113 4.75781C154.202 4.30859 154.427 3.87435 154.786 3.45508C155.146 3.00586 155.64 2.7513 156.269 2.69141C156.778 2.69141 157.542 2.66146 158.56 2.60156C159.578 2.54167 160.477 2.52669 161.255 2.55664C162.064 2.55664 162.842 2.63151 163.591 2.78125C164.579 2.90104 165.223 3.14062 165.523 3.5C165.852 3.85938 166.017 4.5332 166.017 5.52148C166.316 11.0618 166.406 16.5872 166.286 22.0977Z" fill="#E8E8E8"/>
<path d="M217.984 39.8418C217.116 39.8418 215.933 39.8568 214.435 39.8867C212.968 39.8867 211.65 39.8867 210.482 39.8867C209.314 39.8867 208.206 39.8717 207.158 39.8418C205.481 39.8418 204.313 39.7819 203.654 39.6621C202.217 39.4824 201.483 38.7188 201.453 37.3711C201.333 35.3646 201.333 33.373 201.453 31.3965C201.573 30.5879 201.812 30.0339 202.172 29.7344C202.561 29.4049 203.205 29.1803 204.103 29.0605C204.313 29.0605 204.598 29.0456 204.957 29.0156C205.346 28.9857 205.646 28.9707 205.855 28.9707C208.221 28.9707 211.74 28.9557 216.412 28.9258C221.114 28.8958 224.648 28.8809 227.014 28.8809C228.092 28.8809 228.84 29.0456 229.26 29.375C229.679 29.7044 229.948 30.3783 230.068 31.3965C230.248 33.0436 230.338 34.6908 230.338 36.3379V49.4102C230.338 51.806 229.35 53.5579 227.373 54.666C222.821 57.4212 218.838 59.3379 215.424 60.416C212.04 61.4941 207.937 62.0332 203.115 62.0332C197.994 62.0332 192.798 60.7754 187.527 58.2598C181.747 55.4447 177.525 51.0273 174.859 45.0078C171.865 38.0898 171.4 30.6029 173.467 22.5469C174.156 19.8216 175.443 16.9316 177.33 13.877C179.217 10.8223 181.268 8.59115 183.484 7.18359C189.085 3.32031 195.868 1.38867 203.834 1.38867C206.439 1.38867 208.91 1.62826 211.246 2.10742C213.582 2.58659 215.813 3.33529 217.939 4.35352C220.066 5.3418 221.952 6.7194 223.6 8.48633C225.277 10.2233 226.594 12.2747 227.553 14.6406C227.643 14.9401 227.897 15.4043 228.316 16.0332C228.766 16.6621 229.035 17.2311 229.125 17.7402C229.305 18.9082 229.245 19.8216 228.945 20.4805C228.646 21.1393 228.002 21.6185 227.014 21.918C226.385 22.1276 224.573 22.6367 221.578 23.4453C219.841 23.8047 218.613 23.1309 217.894 21.4238C217.505 20.7051 216.981 19.5521 216.322 17.9648C215.544 15.9883 213.747 14.4759 210.932 13.4277C208.116 12.3796 205.406 11.8555 202.801 11.8555C199.387 11.8555 196.272 12.6191 193.457 14.1465C190.642 15.6439 188.516 17.8301 187.078 20.7051C184.862 25.3171 184.128 30.4681 184.877 36.1582C185.596 40.9499 187.662 44.6335 191.076 47.209C194.49 49.7845 198.653 51.0723 203.564 51.0723C207.128 51.0723 210.527 50.3984 213.762 49.0508C214.151 48.901 214.66 48.6465 215.289 48.2871C215.918 47.8978 216.337 47.6582 216.547 47.5684C217.685 47.0293 218.254 46.0859 218.254 44.7383C218.254 44.4987 218.269 44.0195 218.299 43.3008C218.359 42.582 218.359 41.9681 218.299 41.459C218.269 40.9199 218.164 40.3809 217.984 39.8418Z" fill="#E8E8E8"/>
<path d="M271.928 35.2598H261.461C260.623 35.1699 259.68 35.125 258.631 35.125C257.613 35.0951 256.76 35.0951 256.071 35.125C255.412 35.125 254.409 35.1549 253.061 35.2148C251.743 35.2747 250.83 35.3197 250.321 35.3496C250.021 35.4095 249.782 35.4694 249.602 35.5293C249.422 35.5892 249.258 35.709 249.108 35.8887C248.958 36.0384 248.898 36.248 248.928 36.5176C249.078 37.7454 249.093 39.9915 248.973 43.2559C248.853 46.4902 248.808 48.7214 248.838 49.9492C248.958 51.7161 249.018 53.7077 249.018 55.9238C249.018 56.0436 249.033 56.2383 249.063 56.5078C249.093 56.7474 249.108 56.8971 249.108 56.957C249.048 58.4544 248.764 59.4577 248.254 59.9668C247.775 60.4759 246.772 60.7604 245.245 60.8203C242.969 61 241.112 61.0299 239.674 60.9102C237.937 60.8503 237.069 59.9668 237.069 58.2598C236.979 56.9421 236.919 55.0553 236.889 52.5996C236.859 50.1439 236.829 48.4668 236.799 47.5684V9.29492C236.829 8.72591 236.859 7.85742 236.889 6.68945C236.919 5.49154 236.949 4.60807 236.979 4.03906C236.979 3.5599 237.144 3.14062 237.473 2.78125C237.803 2.39193 238.222 2.16732 238.731 2.10742C240.049 1.92773 241.336 1.83789 242.594 1.83789C243.972 1.83789 245.379 1.95768 246.817 2.19727C247.985 2.37695 248.659 3.11068 248.838 4.39844C248.868 4.60807 248.913 5.04232 248.973 5.70117C249.063 6.36003 249.108 6.7793 249.108 6.95898C249.108 7.13867 249.108 7.57292 249.108 8.26172C248.988 9.84896 248.928 12.0501 248.928 14.8652C248.928 17.6803 248.898 19.9264 248.838 21.6035V22.2773C248.898 23.5951 249.572 24.2689 250.86 24.2988C252.387 24.4186 254.139 24.4785 256.116 24.4785C258.092 24.4785 259.844 24.4186 261.372 24.2988C262.24 24.1191 262.944 24.1191 263.483 24.2988C264.381 24.4785 265.34 24.5833 266.358 24.6133C267.406 24.6133 268.514 24.5833 269.682 24.5234C270.88 24.4635 271.853 24.4486 272.602 24.4785C273.441 24.4785 273.995 24.3138 274.264 23.9844C274.564 23.625 274.743 22.9661 274.803 22.0078C274.803 21.0495 274.788 19.627 274.758 17.7402C274.728 15.8535 274.713 14.446 274.713 13.5176C274.713 8.78581 274.743 5.74609 274.803 4.39844C274.803 3.73958 274.908 3.27539 275.118 3.00586C275.357 2.70638 275.777 2.49674 276.376 2.37695C277.693 2.01758 278.981 1.83789 280.239 1.83789C281.467 1.83789 282.725 1.95768 284.012 2.19727C286.049 2.4069 286.992 3.63477 286.842 5.88086C286.723 9.50456 286.812 15.6139 287.112 24.209C287.112 26.2454 287.022 29.1504 286.842 32.9238V48.8711C286.812 49.3802 286.767 50.7878 286.708 53.0938C286.648 55.3698 286.573 57.1217 286.483 58.3496C286.423 59.9069 285.749 60.7005 284.461 60.7305C282.365 60.9102 280.763 61 279.655 61C278.697 61 277.843 60.9401 277.094 60.8203C275.238 60.4909 274.384 59.5326 274.534 57.9453C274.564 57.5859 274.534 56.4779 274.444 54.6211C274.354 52.7344 274.444 51.6113 274.713 51.252C274.773 50.9225 274.803 50.5632 274.803 50.1738C274.803 49.7845 274.788 49.3503 274.758 48.8711C274.728 48.3919 274.713 48.0176 274.713 47.748V37.9102C274.713 36.862 274.519 36.1582 274.129 35.7988C273.77 35.4395 273.036 35.2598 271.928 35.2598Z" fill="#E8E8E8"/>
<path d="M294.023 2.19727H315.45C316.858 2.13737 319.149 2.13737 322.323 2.19727C325.528 2.25716 327.804 2.22721 329.152 2.10742C330.32 2.01758 333.135 2.07747 337.597 2.28711C339.214 2.43685 340.142 3.21549 340.382 4.62305C340.681 6.65951 340.562 8.98047 340.023 11.5859C339.843 12.5143 339.064 12.9785 337.687 12.9785C336.698 13.0384 334.467 13.0684 330.993 13.0684H322.907C321.799 13.0684 321.155 13.6224 320.976 14.7305C320.976 20.1211 321.036 24.9277 321.155 29.1504V40.0215C321.155 40.0514 321.126 41.6387 321.066 44.7832C321.006 47.9277 321.036 49.5 321.155 49.5C321.275 51.207 321.245 54.1569 321.066 58.3496C321.006 59.278 320.766 59.9668 320.347 60.416C319.928 60.8353 319.329 61.0299 318.55 61C317.771 60.9102 316.633 60.8952 315.136 60.9551C313.668 61.015 312.575 61 311.857 60.9102C310.299 60.8503 309.416 60.0866 309.206 58.6191C309.056 58.1999 308.982 57.6159 308.982 56.8672C308.982 56.2982 309.027 54.127 309.116 50.3535C309.236 46.5801 309.236 44.304 309.116 43.5254C308.937 39.4225 308.937 35.3047 309.116 31.1719V22.0078C309.056 21.1693 309.012 19.9414 308.982 18.3242C308.952 16.6771 308.922 15.4492 308.892 14.6406C308.892 14.0716 308.802 13.6823 308.622 13.4727C308.443 13.263 308.053 13.1582 307.454 13.1582H296.134C294.487 13.1582 293.439 13.1283 292.989 13.0684C292.091 13.0085 291.447 12.7839 291.058 12.3945C290.639 12.0052 290.369 11.3763 290.249 10.5078C290.129 9.45964 290.07 7.55794 290.07 4.80273C290.07 3.87435 290.474 3.21549 291.282 2.82617C292.061 2.4069 292.974 2.19727 294.023 2.19727Z" fill="#E8E8E8"/>
<path d="M367.732 25.1973C368.75 24.0293 369.484 23.0859 369.933 22.3672C370.592 21.4388 371.581 20.0762 372.898 18.2793C374.246 16.4525 375.249 15.0599 375.908 14.1016C376.447 13.263 377.435 11.7956 378.873 9.69922C380.31 7.57292 381.403 5.91081 382.152 4.71289C383.081 3.12565 384.518 2.25716 386.465 2.10742C388.411 1.98763 390.657 1.92773 393.203 1.92773C393.922 1.92773 394.596 2.15234 395.224 2.60156C396.243 3.41016 396.422 4.41341 395.764 5.61133C395.075 6.89909 394.221 8.1569 393.203 9.38477C389.729 13.7272 386.105 18.6387 382.332 24.1191C381.583 25.1673 380.325 26.8444 378.558 29.1504C376.821 31.4564 375.504 33.2682 374.605 34.5859C373.647 36.0534 373.168 37.6855 373.168 39.4824C373.228 42.0879 373.258 47.8529 373.258 56.7773C373.258 58.4544 373.003 59.5475 372.494 60.0566C371.985 60.5658 370.952 60.8203 369.394 60.8203C367.987 60.9401 366.445 61 364.767 61C363.36 61 362.387 60.7454 361.848 60.2363C361.338 59.6973 361.084 58.7539 361.084 57.4062C360.904 50.1589 360.904 44.3639 361.084 40.0215C361.144 37.3262 360.35 34.9603 358.703 32.9238C357.505 31.3366 355.813 28.9857 353.627 25.8711C351.471 22.7266 350.243 20.9447 349.943 20.5254C348.955 19.0879 347.502 17.0814 345.586 14.5059C343.669 11.9004 342.486 10.2832 342.037 9.6543C341.887 9.44466 341.648 9.13021 341.318 8.71094C340.959 8.26172 340.689 7.91732 340.51 7.67773C340.33 7.4082 340.12 7.07878 339.881 6.68945C339.641 6.27018 339.446 5.88086 339.297 5.52148C338.758 4.23372 339.117 3.29036 340.375 2.69141C340.525 2.63151 340.704 2.55664 340.914 2.4668C341.124 2.34701 341.318 2.25716 341.498 2.19727C341.678 2.13737 341.857 2.10742 342.037 2.10742C346.29 2.10742 348.745 2.13737 349.404 2.19727C350.991 2.22721 352.369 3.06576 353.537 4.71289C354.316 5.91081 357.67 10.8672 363.599 19.582C365.696 22.457 367.073 24.3288 367.732 25.1973Z" fill="#E8E8E8"/>
<path d="M411.928 34.2266V48.1973C411.928 49.3652 412.437 49.9492 413.456 49.9492C417.379 49.9492 420.913 49.8893 424.057 49.7695C430.915 49.7695 435.452 47.0742 437.668 41.6836C438.028 40.7253 438.312 39.752 438.522 38.7637C438.732 37.7754 438.926 36.5026 439.106 34.9453C439.316 33.388 439.45 32.4147 439.51 32.0254C439.989 27.5931 439.076 23.2656 436.77 19.043C434.524 14.9401 430.436 12.8887 424.506 12.8887C420.194 12.7389 416.675 12.709 413.95 12.7988C412.213 12.7988 411.434 13.5924 411.614 15.1797C411.883 16.0182 411.943 17.7253 411.793 20.3008C411.674 22.8464 411.644 24.5384 411.704 25.377C411.763 26.1257 411.763 27.6081 411.704 29.8242C411.674 32.0104 411.749 33.4779 411.928 34.2266ZM399.485 30.7227H399.395V14.8203C399.395 9.84896 399.425 6.65951 399.485 5.25195C399.605 2.91602 400.743 1.74805 402.899 1.74805H419.834C420.403 1.77799 421.452 1.80794 422.979 1.83789C424.536 1.86784 425.854 1.91276 426.932 1.97266C428.01 2.03255 429.043 2.13737 430.032 2.28711C438.836 3.72461 444.946 8.02214 448.36 15.1797C451.055 20.7799 452.148 26.9492 451.639 33.6875C451.34 37.3411 450.92 40.0065 450.381 41.6836C448.584 47.7331 445.59 52.4049 441.397 55.6992C437.234 58.9935 432.068 60.6406 425.899 60.6406C425.18 60.4609 424.686 60.401 424.416 60.4609C421.931 60.8203 418.637 60.9701 414.534 60.9102C410.431 60.8503 407.166 60.8802 404.741 61H403.618C401.911 60.7305 400.788 60.3411 400.249 59.832C399.739 59.3229 399.485 58.2148 399.485 56.5078V30.7227Z" fill="#E8E8E8"/>
<path d="M508.099 22.0977V33.418C508.099 35.6042 508.069 37.3561 508.009 38.6738C507.979 39.9616 507.844 41.474 507.605 43.2109C507.365 44.9479 507.006 46.4453 506.526 47.7031C506.077 48.9609 505.433 50.3086 504.595 51.7461C503.756 53.1836 502.708 54.5762 501.45 55.9238C499.084 58.4095 496.329 60.0866 493.185 60.9551C490.07 61.7936 486.416 62.2129 482.224 62.2129C480.756 62.2129 478.915 62.0781 476.698 61.8086C473.704 61.2695 471.113 60.446 468.927 59.3379C466.741 58.2298 464.944 56.9271 463.536 55.4297C462.159 53.9023 461.051 52.0605 460.212 49.9043C459.403 47.7181 458.834 45.4421 458.505 43.0762C458.206 40.7103 458.056 37.9701 458.056 34.8555C458.056 33.8372 458.101 30.6029 458.191 25.1523C458.28 19.7018 458.265 16.4674 458.146 15.4492C458.056 14.3711 458.071 12.7988 458.191 10.7324C458.28 8.66602 458.295 7.10872 458.235 6.06055C458.176 5.52148 458.235 4.9375 458.415 4.30859C458.595 3.17057 459.239 2.60156 460.347 2.60156C460.766 2.60156 461.365 2.60156 462.144 2.60156C462.952 2.57161 463.596 2.55664 464.075 2.55664C464.554 2.55664 465.138 2.57161 465.827 2.60156C466.516 2.63151 467.145 2.69141 467.714 2.78125C469.002 2.96094 469.735 3.57487 469.915 4.62305C470.035 5.01237 470.095 5.80599 470.095 7.00391C470.275 19.612 470.334 28.2819 470.275 33.0137C470.155 35.709 470.215 38.6589 470.454 41.8633C470.634 43.6003 471.083 45.0977 471.802 46.3555C472.521 47.6133 473.449 48.6165 474.587 49.3652C475.755 50.084 477.028 50.6081 478.405 50.9375C479.783 51.2669 481.31 51.4316 482.987 51.4316C484.814 51.4316 486.746 51.1471 488.782 50.5781C490.819 49.9792 492.226 49.1257 493.005 48.0176C494.502 46.1009 495.356 44.0495 495.566 41.8633L495.97 34.4961C495.97 30.0339 495.865 24.763 495.655 18.6836C495.506 16.3776 495.491 13.862 495.61 11.1367C495.76 8.38151 495.835 6.82422 495.835 6.46484C495.835 5.77604 495.865 5.20703 495.925 4.75781C496.015 4.30859 496.239 3.87435 496.599 3.45508C496.958 3.00586 497.452 2.7513 498.081 2.69141C498.59 2.69141 499.354 2.66146 500.372 2.60156C501.39 2.54167 502.289 2.52669 503.068 2.55664C503.876 2.55664 504.655 2.63151 505.403 2.78125C506.392 2.90104 507.036 3.14062 507.335 3.5C507.665 3.85938 507.829 4.5332 507.829 5.52148C508.129 11.0618 508.219 16.5872 508.099 22.0977Z" fill="#E8E8E8"/>
<path d="M527.408 13.877C527.468 15.3444 527.498 18.6986 527.498 23.9395C527.498 24.3587 527.663 24.6582 527.992 24.8379C528.351 25.0176 528.681 24.9577 528.98 24.6582C529.31 24.3288 529.834 23.8796 530.552 23.3105C531.271 22.7116 531.795 22.2474 532.125 21.918C533.622 20.4206 536.587 17.6803 541.019 13.6973C545.452 9.68424 548.776 6.4349 550.992 3.94922C552.31 2.54167 553.777 1.89779 555.394 2.01758C555.694 2.04753 556.427 2.0625 557.595 2.0625C558.793 2.0625 559.722 2.13737 560.381 2.28711C560.68 2.43685 561.399 2.48177 562.537 2.42188C563.675 2.36198 564.424 2.34701 564.783 2.37695C565.532 2.49674 566.056 2.85612 566.355 3.45508C566.655 4.02409 566.625 4.65299 566.265 5.3418C566.205 5.43164 566.086 5.6263 565.906 5.92578C565.726 6.22526 565.592 6.4349 565.502 6.55469C565.412 6.67448 565.277 6.83919 565.097 7.04883C564.918 7.25846 564.738 7.42318 564.558 7.54297C564.379 7.66276 564.169 7.7526 563.929 7.8125C563.69 7.90234 563.42 8.09701 563.121 8.39648C562.851 8.69596 562.672 8.87565 562.582 8.93555C561.354 10.0436 559.527 11.7057 557.101 13.9219C554.676 16.1081 552.849 17.7552 551.621 18.8633L544.254 25.5117C543.715 26.0508 543.625 26.6497 543.984 27.3086C544.134 27.668 544.373 28.0723 544.703 28.5215C548.207 33.0137 553.463 39.6621 560.47 48.4668C561.249 49.3952 562.297 50.7279 563.615 52.4648C564.933 54.2018 565.846 55.3848 566.355 56.0137C566.445 56.0736 566.55 56.2083 566.67 56.418C566.789 56.6276 566.894 56.7773 566.984 56.8672C567.643 57.9154 567.793 58.7988 567.433 59.5176C567.104 60.2064 566.31 60.6406 565.052 60.8203C564.483 60.9401 563.899 61 563.301 61H557.326C555.379 61 553.882 60.2663 552.834 58.7988C549.779 54.6061 545.302 48.6914 539.402 41.0547C539.013 40.5156 538.579 39.8118 538.099 38.9434C537.62 38.1348 536.707 37.0566 535.359 35.709C534.67 35.1699 534.026 35.11 533.427 35.5293C531.481 37.0866 529.669 38.7637 527.992 40.5605C527.393 41.3092 527.168 41.9531 527.318 42.4922C527.498 43.3307 527.603 44.2741 527.633 45.3223C527.692 46.3704 527.692 47.3138 527.633 48.1523C527.573 48.9909 527.573 49.9342 527.633 50.9824C527.692 51.5215 527.722 53.6328 527.722 57.3164C527.722 59.6224 526.614 60.8503 524.398 61C521.284 61 519.262 60.9701 518.334 60.9102C517.405 60.7904 516.747 60.5508 516.357 60.1914C515.998 59.832 515.758 59.1882 515.638 58.2598C515.369 56.5228 515.369 54.2767 515.638 51.5215C515.818 50.2637 515.848 49.2155 515.728 48.377C515.339 44.304 515.279 39.153 515.549 32.9238C515.608 32.5046 515.608 31.5163 515.549 29.959C515.489 28.3717 515.459 27.3685 515.459 26.9492C515.459 25.9909 515.429 24.5085 515.369 22.502C515.309 20.4655 515.279 18.6686 515.279 17.1113C515.309 15.5241 515.399 14.0267 515.549 12.6191C515.638 12.1699 515.608 11.5859 515.459 10.8672C515.219 9.42969 515.249 7.18359 515.549 4.12891C515.728 2.78125 516.806 2.10742 518.783 2.10742H524.398C525.626 2.16732 526.405 2.36198 526.734 2.69141C527.064 3.02083 527.258 3.78451 527.318 4.98242C527.558 8.30664 527.588 11.2715 527.408 13.877Z" fill="#E8E8E8"/>
<path d="M576.905 76.2734C575.617 76.2734 574.509 75.8092 573.58 74.8809C572.353 73.2936 572.113 70.5684 572.862 66.7051C572.862 66.6751 572.877 66.6152 572.907 66.5254C572.937 66.4355 572.952 66.3757 572.952 66.3457C573.64 64.8783 575.048 64.1445 577.174 64.1445H578.297C578.417 64.1445 578.582 64.1595 578.791 64.1895C579.001 64.2194 579.136 64.2344 579.196 64.2344C579.525 64.2344 579.78 64.2044 579.959 64.1445H582.161C585.275 64.1445 588.899 64.0397 593.032 63.8301H593.391C594.499 63.9798 595.532 64.0547 596.491 64.0547C596.91 64.0547 597.494 64.0397 598.243 64.0098C598.991 63.9798 599.545 63.9648 599.905 63.9648C600.713 63.875 601.881 63.8301 603.409 63.8301C604.786 63.8301 605.804 63.875 606.463 63.9648C606.853 63.9648 607.766 63.8001 609.203 63.4707C610.371 63.4707 611.39 63.5905 612.258 63.8301C612.677 63.86 613.097 63.9648 613.516 64.1445H613.786C614.534 64.1445 615.223 64.0846 615.852 63.9648C617.11 63.8151 618.203 63.7402 619.131 63.7402C622.665 63.7402 624.687 65.1029 625.196 67.8281V68.0078C625.196 68.1276 625.211 68.3223 625.241 68.5918C625.271 68.8613 625.286 69.0859 625.286 69.2656C625.645 72.4401 625.031 74.5065 623.444 75.4648C623.234 75.5846 623.084 75.6445 622.995 75.6445C620.778 76.0039 618.203 76.1836 615.268 76.1836C612.662 76.1836 610.985 76.1536 610.237 76.0938C609.907 76.0938 609.413 76.0788 608.754 76.0488C608.095 76.0189 607.601 76.0039 607.272 76.0039C604.517 76.1237 599.425 76.1836 591.998 76.1836H577.354C577.324 76.1836 577.264 76.1986 577.174 76.2285C577.084 76.2585 576.995 76.2734 576.905 76.2734Z" fill="#E8E8E8"/>
<path d="M632.69 57.6758V16.3926C632.69 10.1934 632.72 6.19531 632.78 4.39844C632.93 2.96094 633.664 2.22721 634.982 2.19727C637.228 1.98763 639.683 1.95768 642.349 2.10742C642.828 2.10742 643.232 2.21224 643.562 2.42188C643.891 2.60156 644.131 2.82617 644.28 3.0957C644.46 3.33529 644.58 3.69466 644.64 4.17383C644.73 4.62305 644.774 4.9974 644.774 5.29688C644.804 5.56641 644.819 5.95573 644.819 6.46484V48.4668C644.969 49.3652 645.463 49.8294 646.302 49.8594H649.087C656.185 49.8594 660.871 49.9792 663.148 50.2188C663.717 50.2786 664.585 50.2188 665.753 50.0391C666.951 49.8294 667.864 49.7695 668.493 49.8594C668.703 49.8893 669.047 49.8893 669.526 49.8594C670.006 49.7995 670.365 49.7995 670.605 49.8594C672.282 50.069 673.195 51.1172 673.345 53.0039V57.5859C673.465 59.4427 672.461 60.4909 670.335 60.7305C667.7 61.0898 665.124 61.1497 662.608 60.9102C661.77 60.8503 658.491 60.8203 652.771 60.8203C651.962 60.8203 650.779 60.8353 649.222 60.8652C647.664 60.8652 646.392 60.8652 645.403 60.8652C644.445 60.8652 643.277 60.8503 641.899 60.8203C640.522 60.7904 639.234 60.7305 638.036 60.6406C637.767 60.6406 637.213 60.7305 636.374 60.9102C635.266 61.0299 634.368 60.8053 633.679 60.2363C633.02 59.6374 632.69 58.7839 632.69 57.6758Z" fill="#E8E8E8"/>
<path d="M699.662 18.7734C698.973 19.4622 698.419 20.2409 698 21.1094C697.58 21.9779 697.191 22.9811 696.832 24.1191C696.502 25.2572 696.218 26.0807 695.978 26.5898C694.571 29.5247 693.687 31.8906 693.328 33.6875C693.687 34.0469 694.301 34.2266 695.17 34.2266C696.158 34.1667 698.359 34.1367 701.773 34.1367C702.312 34.1367 703.151 34.0469 704.289 33.8672C705.307 33.7474 705.636 33.1934 705.277 32.2051C703.121 26.9043 701.249 22.4271 699.662 18.7734ZM722.302 60.8203V60.9102H719.832C718.274 61.1198 717.106 60.5059 716.328 59.0684C715.938 58.3496 715.459 57.3464 714.89 56.0586C714.351 54.7409 714.007 53.9023 713.857 53.543C713.528 52.7044 713.019 51.4466 712.33 49.7695C711.641 48.0924 711.132 46.8346 710.802 45.9961C710.443 44.9479 709.739 44.4238 708.691 44.4238C707.433 44.3639 704.633 44.334 700.291 44.334C699.722 44.334 698.239 44.3639 695.843 44.4238C693.448 44.4837 691.995 44.4837 691.486 44.4238C689.689 44.304 688.521 45.0827 687.982 46.7598C685.377 53.5879 683.999 57.1966 683.849 57.5859C682.951 60.0417 681.229 61.1797 678.683 61C678.054 60.9102 677.126 60.8652 675.898 60.8652C674.7 60.8652 673.847 60.8503 673.338 60.8203C671.151 60.5208 670.418 59.4128 671.136 57.4961C671.705 55.7891 672.843 52.944 674.55 48.9609L679.806 36.248C680.256 35.1999 680.899 33.6276 681.738 31.5312C682.577 29.4349 683.22 27.8477 683.67 26.7695C683.879 26.2305 684.194 25.4668 684.613 24.4785C685.062 23.4603 685.392 22.6966 685.601 22.1875C687.278 17.5755 689.06 13.3678 690.947 9.56445C691.306 8.72591 691.576 7.84245 691.756 6.91406C691.815 6.64453 691.89 6.375 691.98 6.10547C692.1 5.80599 692.205 5.56641 692.295 5.38672C692.384 5.20703 692.504 4.96745 692.654 4.66797C692.834 4.33854 692.968 4.09896 693.058 3.94922C693.567 2.7513 694.451 2.13737 695.709 2.10742C697.895 1.98763 700.261 1.92773 702.806 1.92773C704.004 1.92773 704.948 2.54167 705.636 3.76953C705.756 3.97917 706.25 5.05729 707.119 7.00391C710.383 14.5508 712.899 20.4056 714.666 24.5684C717.661 31.3965 719.353 35.2598 719.742 36.1582C720.67 38.1048 722.003 41.1745 723.74 45.3672C725.507 49.5599 726.929 52.7493 728.008 54.9355C728.487 55.8639 728.831 56.8372 729.041 57.8555C729.34 59.6523 728.621 60.6406 726.884 60.8203H722.302Z" fill="#E8E8E8"/>
<path d="M745.34 37.3711V42.6719C745.34 43.0612 745.325 43.6152 745.295 44.334C745.295 45.0527 745.295 45.7116 745.295 46.3105C745.295 46.8796 745.31 47.4186 745.34 47.9277C745.34 48.8262 745.445 49.3952 745.655 49.6348C745.894 49.8444 746.478 50.0091 747.407 50.1289C747.856 50.1888 748.545 50.1738 749.473 50.084C750.401 49.9941 751.09 49.9792 751.539 50.0391C752.677 50.2188 753.741 50.3086 754.729 50.3086C755.238 50.3086 757.454 50.1888 761.377 49.9492C765.211 49.8294 767.696 48.0775 768.834 44.6934C769.254 43.6152 769.254 42.4473 768.834 41.1895C768.445 39.9017 767.801 38.8685 766.903 38.0898C765.435 36.9219 763.309 36.248 760.524 36.0684C759.266 36.0085 754.669 35.9785 746.733 35.9785C745.954 35.9785 745.49 36.4427 745.34 37.3711ZM753.291 13.248H746.553C745.774 13.248 745.385 13.5924 745.385 14.2812C745.385 18.8333 745.415 21.7682 745.475 23.0859C745.475 23.8646 745.58 24.3737 745.789 24.6133C745.999 24.8229 746.508 24.9876 747.317 25.1074C747.586 25.1673 748.29 25.1973 749.428 25.1973L752.348 25.1074C754.325 25.0475 755.313 25.0775 755.313 25.1973C757.319 25.347 760.075 24.9577 763.578 24.0293C764.537 23.7298 765.241 23.1458 765.69 22.2773C766.798 20.3607 766.948 18.5189 766.139 16.752C765.36 14.985 763.863 13.9069 761.647 13.5176C760.988 13.3978 760.269 13.3229 759.491 13.293C758.712 13.2331 758.053 13.2031 757.514 13.2031C756.975 13.2031 756.241 13.2181 755.313 13.248C754.414 13.248 753.741 13.248 753.291 13.248ZM733.211 31.2617V9.02539C733.211 6.80924 733.241 5.40169 733.301 4.80273C733.361 4.05404 733.541 3.5 733.84 3.14062C734.17 2.7513 734.664 2.4668 735.323 2.28711C735.892 2.16732 736.356 2.10742 736.715 2.10742H743.813C744.262 2.10742 744.921 2.1224 745.789 2.15234C746.658 2.18229 747.451 2.19727 748.17 2.19727C748.889 2.19727 749.548 2.16732 750.147 2.10742C751.614 2.01758 755.148 2.07747 760.748 2.28711C766.049 2.43685 770.451 4.1888 773.955 7.54297C775.812 9.25 777.16 11.3014 777.998 13.6973C778.837 16.0931 778.957 18.6237 778.358 21.2891C777.789 23.9245 776.456 26.2454 774.36 28.252C773.731 28.8809 773.731 29.4648 774.36 30.0039C774.42 30.0638 774.509 30.1387 774.629 30.2285C774.779 30.2884 774.899 30.3333 774.989 30.3633C780.229 34.0469 782.251 39.4375 781.053 46.5352C780.574 49.7995 779.047 52.6445 776.471 55.0703C773.925 57.4961 771.095 59.0983 767.981 59.877C765.705 60.446 762.216 60.8203 757.514 61C756.256 61.0599 752.917 61.0599 747.496 61C742.076 60.9401 738.662 60.9102 737.254 60.9102H736.266C735.278 60.7904 734.544 60.5358 734.065 60.1465C733.616 59.7572 733.391 59.0534 733.391 58.0352C733.391 57.3464 733.346 56.0436 733.256 54.127C733.166 52.1803 733.151 50.668 733.211 49.5898C733.391 45.0078 733.391 38.8984 733.211 31.2617Z" fill="#E8E8E8"/>
<path d="M812.311 60.9102C807.64 61.1198 803.043 60.3262 798.52 58.5293C792.561 56.2233 788.548 51.7461 786.481 45.0977C786.212 43.9896 786.077 42.4772 786.077 40.5605C786.077 39.2728 786.826 38.5091 788.323 38.2695C788.593 38.2396 789.401 38.1647 790.749 38.0449C792.127 37.9251 793.175 37.7904 793.893 37.6406C793.983 37.6406 794.103 37.6257 794.253 37.5957C794.403 37.5658 794.507 37.5508 794.567 37.5508C796.065 37.5508 797.098 38.4043 797.667 40.1113C797.667 40.2012 797.682 40.321 797.712 40.4707C797.772 40.6204 797.802 40.7402 797.802 40.8301C798.161 42.597 798.835 44.1094 799.823 45.3672C800.841 46.625 802.069 47.5983 803.507 48.2871C804.974 48.946 806.472 49.4251 807.999 49.7246C809.526 49.9941 811.173 50.1289 812.94 50.1289C813.3 50.1289 813.629 50.1289 813.929 50.1289C814.258 50.099 814.588 50.069 814.917 50.0391C815.276 49.9792 815.561 49.9342 815.77 49.9043C816.01 49.8743 816.31 49.8145 816.669 49.7246C817.058 49.6348 817.328 49.5749 817.477 49.5449C817.657 49.485 817.957 49.3952 818.376 49.2754C818.795 49.1257 819.065 49.0358 819.185 49.0059C819.304 48.9759 819.619 48.8711 820.128 48.6914C820.637 48.5117 820.951 48.4069 821.071 48.377C822.179 47.9277 822.973 47.2839 823.452 46.4453C823.961 45.6068 824.365 44.4837 824.665 43.0762C824.725 42.6868 824.59 42.1328 824.261 41.4141C823.662 40.1862 822.823 39.2728 821.745 38.6738C820.667 38.0749 819.304 37.5508 817.657 37.1016C816.459 36.7721 814.692 36.3379 812.356 35.7988C810.02 35.2598 808.254 34.8255 807.056 34.4961C805.558 34.1068 804.36 33.7923 803.462 33.5527C802.593 33.3132 801.545 32.9837 800.317 32.5645C799.089 32.1152 798.086 31.696 797.308 31.3066C796.559 30.8874 795.705 30.3633 794.747 29.7344C793.819 29.0755 793.025 28.3717 792.366 27.623C791.737 26.8743 791.093 25.9909 790.435 24.9727C789.776 23.9245 789.192 22.7715 788.683 21.5137C788.143 20.3457 787.949 18.9681 788.099 17.3809C788.248 14.9251 788.787 12.724 789.716 10.7773C790.674 8.83073 791.872 7.22852 793.31 5.9707C794.777 4.68294 796.499 3.61979 798.476 2.78125C800.452 1.94271 802.489 1.34375 804.585 0.984375C806.681 0.625 808.882 0.445312 811.188 0.445312C813.674 0.445312 816.01 0.669922 818.196 1.11914C820.382 1.53841 822.479 2.21224 824.485 3.14062C826.522 4.03906 828.334 5.31185 829.921 6.95898C831.508 8.60612 832.781 10.5527 833.739 12.7988C833.949 13.3079 834.114 13.832 834.233 14.3711C834.353 14.9102 834.443 15.6139 834.503 16.4824C834.593 17.3509 834.653 17.875 834.683 18.0547C834.802 18.7734 834.608 19.4173 834.099 19.9863C833.619 20.5254 833.005 20.8548 832.257 20.9746C829.142 21.2741 826.911 21.4238 825.563 21.4238C824.994 21.4837 824.485 21.3789 824.036 21.1094C823.587 20.8099 823.302 20.3607 823.183 19.7617C823.093 19.5521 822.988 19.2227 822.868 18.7734C822.748 18.2943 822.658 17.9499 822.599 17.7402C822.149 16.153 821.281 14.8503 819.993 13.832C818.735 12.7839 817.373 12.0801 815.905 11.7207C814.438 11.3314 812.865 11.1367 811.188 11.1367C807.355 11.1367 804.27 11.9004 801.935 13.4277C800.707 14.3561 800.078 15.5091 800.048 16.8867C800.018 18.2643 800.617 19.4173 801.845 20.3457C802.324 20.8249 803.058 21.2142 804.046 21.5137C805.453 21.903 806.906 22.2923 808.403 22.6816C809.901 23.041 811.653 23.4603 813.659 23.9395C815.666 24.3887 817.118 24.7181 818.017 24.9277C823.407 26.0957 827.675 27.9974 830.819 30.6328C833.784 32.9688 835.596 35.9785 836.255 39.6621C836.914 43.3158 836.3 46.8646 834.413 50.3086C832.976 53.0339 831.164 55.1152 828.977 56.5527C826.821 57.9902 824.081 59.1283 820.757 59.9668C817.492 60.8053 814.677 61.1198 812.311 60.9102Z" fill="#E8E8E8"/>
</svg>
